<?xml version="1.0" standalone="no"?>
<!DOCTYPE svg PUBLIC "-//W3C//DTD SVG 20010904//EN"
 "http://www.w3.org/TR/2001/REC-SVG-20010904/DTD/svg10.dtd">
<svg version="1.0" xmlns="http://www.w3.org/2000/svg"
 width="600.000000pt" height="600.000000pt" viewBox="0 0 600.000000 600.000000"
 preserveAspectRatio="xMidYMid meet">

<g transform="translate(0.000000,600.000000) scale(0.100000,-0.100000)"
fill="#FFFFFF" stroke="none">
<path d="M2997 5839 c-234 -27 -440 -154 -566 -349 -258 -398 -35 -930 447
-1065 l57 -16 0 -194 0 -193 -80 -20 c-222 -54 -422 -179 -555 -345 -64 -80
-144 -240 -171 -342 -27 -103 -31 -296 -7 -401 74 -328 344 -607 676 -698 48
-14 98 -27 112 -30 l25 -5 0 -193 c0 -117 -4 -196 -10 -200 -5 -4 -19 -8 -30
-8 -11 0 -56 -15 -100 -33 -216 -90 -368 -249 -441 -462 -25 -71 -28 -94 -28
-205 1 -108 4 -136 27 -205 38 -115 90 -197 187 -295 71 -73 100 -94 180 -133
135 -67 227 -89 375 -89 135 1 235 22 344 72 390 183 541 634 332 996 -99 172
-276 303 -478 354 l-43 11 0 194 0 195 28 6 c218 47 373 125 523 262 l66 61
39 -21 c221 -118 300 -161 307 -168 5 -4 1 -40 -8 -79 -25 -103 -17 -270 18
-369 109 -305 396 -502 731 -504 157 0 244 20 376 88 137 70 244 171 315 299
55 99 76 177 82 305 5 98 2 127 -16 195 -43 156 -113 267 -235 373 -75 64
-214 135 -320 162 -109 27 -283 28 -392 0 -108 -27 -250 -99 -317 -160 -30
-28 -59 -50 -64 -50 -9 0 -44 18 -280 146 l-83 45 14 34 c65 155 65 435 0 590
l-14 34 78 42 c42 23 120 66 173 95 54 30 102 54 109 54 7 0 34 -19 60 -42 92
-83 221 -147 353 -175 114 -24 308 -13 417 23 258 86 438 274 502 526 28 112
22 269 -15 376 -95 274 -351 471 -652 502 -51 5 -109 7 -131 5 -111 -13 -143
-19 -198 -37 -123 -40 -224 -102 -317 -193 -79 -77 -126 -151 -168 -260 -30
-79 -35 -104 -39 -205 -3 -86 0 -132 12 -179 9 -34 16 -66 16 -71 0 -9 -57
-42 -225 -130 -55 -29 -106 -57 -113 -63 -9 -7 -27 4 -65 40 -146 138 -326
234 -511 273 l-56 11 0 194 0 193 72 22 c266 81 456 271 525 523 22 84 22 251
-1 337 -96 359 -460 595 -849 549z m253 -411 c81 -37 134 -89 171 -164 28 -57
33 -76 33 -142 -1 -97 -32 -169 -104 -236 -154 -144 -382 -138 -523 13 -68 73
-91 128 -91 221 0 154 92 275 249 327 66 21 199 12 265 -19z m1867 -1012 c70
-32 138 -97 174 -167 33 -65 38 -176 9 -251 -29 -79 -96 -150 -178 -190 -61
-29 -75 -32 -157 -32 -119 0 -186 26 -261 99 -67 66 -96 128 -102 220 -9 153
91 289 251 341 69 23 190 13 264 -20z m-1833 -860 c284 -109 409 -404 280
-664 -126 -256 -464 -357 -731 -219 -98 51 -189 157 -233 272 -30 79 -33 215
-6 293 58 168 188 288 366 337 85 23 237 15 324 -19z m1774 -1140 c112 -30
204 -111 243 -215 17 -45 20 -71 17 -131 -8 -129 -74 -225 -198 -284 -59 -28
-74 -31 -160 -31 -88 0 -101 3 -162 33 -214 105 -265 366 -103 528 58 58 92
78 167 98 68 19 130 19 196 2z m-1801 -1036 c130 -64 215 -206 199 -333 -15
-116 -88 -217 -194 -269 -62 -31 -74 -33 -167 -33 -87 0 -107 3 -155 26 -82
39 -135 90 -172 167 -29 58 -33 77 -33 142 1 59 6 87 27 132 43 92 140 171
245 198 69 17 181 3 250 -30z"/>
</g>
</svg>
