<?xml version="1.0" standalone="no"?>
<!DOCTYPE svg PUBLIC "-//W3C//DTD SVG 20010904//EN"
 "http://www.w3.org/TR/2001/REC-SVG-20010904/DTD/svg10.dtd">
<svg version="1.0" xmlns="http://www.w3.org/2000/svg"
 width="220.000000pt" height="256.000000pt" viewBox="0 0 220.000000 256.000000"
 preserveAspectRatio="xMidYMid meet">

<g transform="translate(0.000000,256.000000) scale(0.100000,-0.100000)"
fill="#ffffff" stroke="none">
<path d="M785 2554 c-312 -31 -476 -69 -616 -140 -62 -31 -133 -94 -148 -133
-8 -19 -11 -90 -9 -222 3 -189 4 -195 28 -227 119 -160 598 -267 1038 -234 86
7 193 19 237 27 192 34 369 102 443 170 66 59 74 94 70 297 -3 170 -4 176 -30
215 -67 101 -283 188 -565 227 -111 16 -375 27 -448 20z"/>
<path d="M10 1540 c0 -191 1 -196 25 -232 30 -44 125 -109 203 -138 140 -54
351 -92 562 -104 l105 -6 50 66 c93 122 203 200 365 256 90 31 102 32 235 32
111 -1 154 -5 208 -21 l67 -20 0 180 0 180 -29 -40 c-68 -94 -260 -174 -526
-220 -142 -24 -568 -24 -710 0 -280 48 -476 133 -536 232 -19 30 -19 29 -19
-165z"/>
<path d="M1475 1270 c-147 -18 -257 -72 -365 -180 -81 -81 -135 -170 -166
-275 -27 -91 -25 -258 5 -355 54 -179 176 -317 346 -395 96 -45 164 -59 275
-58 170 2 307 60 431 183 150 148 215 335 188 535 -20 152 -86 274 -207 386
-136 126 -315 182 -507 159z m-7 -360 c46 -52 87 -95 92 -95 4 0 43 42 86 93
43 51 87 95 98 98 12 2 76 3 144 2 l123 -3 -142 -165 c-77 -91 -148 -172 -156
-182 -13 -14 1 -34 141 -196 85 -99 152 -183 149 -186 -4 -3 -64 -6 -135 -6
-146 0 -124 -11 -232 118 -38 45 -72 82 -76 82 -4 0 -46 -45 -94 -100 l-86
-100 -135 0 c-74 0 -135 3 -135 7 0 4 10 17 22 30 18 19 32 23 78 23 44 0 61
4 75 20 18 20 17 20 -33 20 -29 0 -52 4 -52 8 0 23 41 43 94 46 90 6 122 46
36 46 -27 0 -50 4 -50 9 0 21 46 41 93 41 49 0 87 13 87 30 0 6 -22 10 -50 10
-56 0 -60 7 -27 38 16 15 38 22 82 24 45 2 60 7 60 18 0 11 -15 16 -60 18 -44
2 -66 9 -82 24 -30 28 -21 38 33 38 24 0 44 4 44 8 0 21 -29 32 -82 32 -46 0
-61 4 -78 23 l-21 22 50 3 c56 3 59 7 34 34 -12 13 -31 18 -71 18 -38 0 -61 5
-74 17 -29 26 -22 33 32 33 48 0 50 1 38 20 -10 16 -24 20 -66 20 -59 0 -86
11 -102 41 -11 19 -8 20 127 17 l137 -3 84 -95z"/>
<path d="M10 1015 c0 -208 4 -224 68 -281 98 -87 371 -171 622 -190 l85 -7 0
109 c1 100 5 128 41 250 5 20 1 21 -83 28 -354 28 -639 128 -714 250 l-19 31
0 -190z"/>
<path d="M10 488 c0 -146 3 -179 19 -213 39 -87 161 -156 371 -210 169 -44
453 -72 609 -60 l94 7 -62 56 c-80 71 -134 143 -182 247 l-39 82 -107 6 c-286
16 -556 106 -656 217 -21 22 -39 40 -42 40 -3 0 -5 -78 -5 -172z"/>
</g>
</svg>
